<svg width="18" height="18" viewBox="0 0 18 18" fill="none" xmlns="http://www.w3.org/2000/svg">
<path d="M5.33063 14.2358L5.60399 15.077H6.49769L5.77222 15.6027L6.0561 16.4543L5.33063 15.9286L4.60516 16.4543L4.88904 15.6027L4.16357 15.077H5.05727L5.33063 14.2358Z" fill="white"/>
<path d="M2.74416 4.16357L3.01752 5.01521H3.91122L3.18575 5.54091L3.45911 6.39255L2.74416 5.86685L2.01869 6.39255L2.29206 5.54091L1.56659 5.01521H2.46028L2.74416 4.16357Z" fill="white"/>
<path d="M5.32007 1.53491L5.59344 2.38655H6.48713L5.77217 2.91225L6.04554 3.76388L5.32007 3.23818L4.5946 3.76388L4.87848 2.91225L4.15302 2.38655H5.04671L5.32007 1.53491Z" fill="white"/>
<path d="M9 0.546631L9.27337 1.39827H10.1671L9.44159 1.92397L9.72547 2.7756L9 2.2499L8.27454 2.7756L8.55841 1.92397L7.83295 1.39827H8.72664L9 0.546631Z" fill="white"/>
<path d="M12.6378 1.54541L12.9112 2.39705H13.8049L13.0794 2.92275L13.3633 3.76387L12.6378 3.24868L11.9124 3.76387L12.1857 2.92275L11.4708 2.39705H12.3645L12.6378 1.54541Z" fill="white"/>
<path d="M15.3189 4.22656L15.5923 5.06768H16.486L15.7605 5.59339L16.0339 6.44502L15.3189 5.91932L14.5935 6.44502L14.8668 5.59339L14.1414 5.06768H15.035L15.3189 4.22656Z" fill="white"/>
<path d="M16.3073 7.896L16.5806 8.74763H17.4743L16.7488 9.27333L17.0327 10.125L16.3073 9.59927L15.5818 10.125L15.8657 9.27333L15.1402 8.74763H16.0339L16.3073 7.896Z" fill="white"/>
<path d="M15.3084 11.5864L15.5923 12.4381H16.486L15.7605 12.9638L16.0339 13.8154L15.3084 13.2897L14.5935 13.8154L14.8668 12.9638L14.1414 12.4381H15.035L15.3084 11.5864Z" fill="white"/>
<path d="M12.6378 14.2463L12.9112 15.098H13.8049L13.0794 15.6237L13.3528 16.4753L12.6378 15.9496L11.9124 16.4753L12.1857 15.6237L11.4603 15.098H12.354L12.6378 14.2463Z" fill="white"/>
<path d="M9.0105 15.2241L9.28387 16.0758H10.1776L9.45209 16.6015L9.73597 17.4531L9.0105 16.9274L8.28503 17.4531L8.5584 16.6015L7.84344 16.0758H8.73714L9.0105 15.2241Z" fill="white"/>
<path d="M2.70209 11.5759L2.98597 12.4276H3.87966L3.15419 12.9428L3.42756 13.7944L2.70209 13.2687L1.98714 13.7944L2.2605 12.9428L1.53503 12.4276H2.42873L2.70209 11.5759Z" fill="white"/>
<path d="M1.70327 7.83276L1.97663 8.69491H2.88084L2.15537 9.22061L2.42873 10.0828L1.70327 9.54655L0.967285 10.0828L1.25116 9.22061L0.525696 8.69491H1.41939L1.70327 7.83276Z" fill="white"/>
<path d="M9.02105 9.8306C8.22198 9.8306 7.5596 9.55723 7.0339 9.0105C6.51871 8.46378 6.25586 7.79088 6.25586 6.99181C6.25586 6.18223 6.51871 5.51985 7.0339 4.98364C7.54908 4.44742 8.21147 4.18457 9.01053 4.18457C9.8096 4.18457 10.472 4.45793 10.9767 5.00466C11.4813 5.55139 11.7337 6.22429 11.7337 7.02336C11.7337 7.82242 11.4813 8.49532 10.9767 9.02102C10.472 9.55723 9.83063 9.8306 9.02105 9.8306Z" fill="white"/>
<path d="M6.26636 13.7733C6.26636 12.9637 6.52921 12.3013 7.04439 11.7651C7.55958 11.2289 8.22197 10.9661 9.03154 10.9661C9.83061 10.9661 10.493 11.2394 10.9872 11.7862C11.4918 12.3329 11.7442 13.0058 11.7442 13.8048" fill="white"/>
</svg>
