<?xml version="1.0" encoding="UTF-8"?>
<svg xmlns="http://www.w3.org/2000/svg" xmlns:xlink="http://www.w3.org/1999/xlink" width="180px" height="180px" viewBox="0 0 180 180" version="1.1">
<g id="surface1">
<path style=" stroke:none;fill-rule:nonzero;fill:rgb(7.843138%,63.921571%,70.588237%);fill-opacity:1;" d="M 85.695312 25.921875 C 86.386719 25.921875 87.078125 25.921875 87.792969 25.917969 C 88.519531 25.921875 89.25 25.925781 90 25.929688 C 91.09375 25.921875 91.09375 25.921875 92.207031 25.917969 C 92.902344 25.921875 93.59375 25.921875 94.304688 25.921875 C 94.945312 25.921875 95.585938 25.921875 96.246094 25.925781 C 97.734375 26.015625 97.734375 26.015625 98.4375 26.71875 C 98.546875 28.125 98.613281 29.53125 98.660156 30.941406 C 98.703125 32.222656 98.703125 32.222656 98.75 33.527344 C 98.777344 34.429688 98.804688 35.328125 98.832031 36.253906 C 98.863281 37.15625 98.894531 38.058594 98.925781 38.988281 C 99 41.226562 99.070312 43.464844 99.140625 45.703125 C 99.6875 45.335938 100.230469 44.972656 100.792969 44.597656 C 112.476562 37.054688 125.488281 33.707031 139.375 36.339844 C 152.40625 39.585938 163.167969 46.824219 170.296875 58.296875 C 176.5625 68.910156 178.5625 81.074219 175.863281 93.195312 C 172.609375 105.355469 164.917969 116.011719 153.984375 122.34375 C 142.042969 128.714844 128.734375 130.972656 115.480469 127.398438 C 109.816406 125.320312 103.835938 122.652344 99.140625 118.828125 C 99.113281 119.679688 99.089844 120.527344 99.0625 121.40625 C 98.484375 136.792969 95.332031 148.503906 85.078125 160.3125 C 82.667969 159.902344 81.53125 159.128906 79.835938 157.386719 C 79.402344 156.945312 78.96875 156.503906 78.519531 156.046875 C 78.074219 155.585938 77.628906 155.121094 77.167969 154.644531 C 76.710938 154.175781 76.253906 153.710938 75.785156 153.230469 C 74.65625 152.082031 73.539062 150.925781 72.421875 149.765625 C 72.710938 149.414062 72.996094 149.0625 73.292969 148.699219 C 77.613281 143.34375 80.96875 137.078125 80.929688 130.089844 C 80.925781 129.433594 80.921875 128.773438 80.921875 128.097656 C 80.914062 127.417969 80.910156 126.738281 80.902344 126.035156 C 80.898438 125.34375 80.898438 124.652344 80.894531 123.941406 C 80.886719 122.234375 80.875 120.53125 80.859375 118.828125 C 80.398438 119.144531 79.9375 119.457031 79.464844 119.78125 C 67.761719 127.53125 55.75 130.847656 41.75 128.472656 C 28.5 125.652344 17.378906 118.203125 9.84375 106.875 C 8.210938 103.902344 6.863281 100.886719 5.625 97.734375 C 5.386719 97.144531 5.144531 96.558594 4.898438 95.953125 C 1.3125 85.433594 2.878906 72.554688 7.257812 62.570312 C 13.414062 50.507812 23.09375 42.519531 35.578125 37.695312 C 49.417969 33.417969 63.015625 35.617188 75.632812 42.230469 C 77.523438 43.300781 79.152344 44.382812 80.859375 45.703125 C 80.886719 44.847656 80.886719 44.847656 80.914062 43.972656 C 80.992188 41.398438 81.082031 38.828125 81.167969 36.253906 C 81.195312 35.355469 81.222656 34.457031 81.25 33.527344 C 81.28125 32.675781 81.308594 31.820312 81.339844 30.941406 C 81.367188 30.148438 81.390625 29.355469 81.417969 28.542969 C 81.664062 25.421875 82.871094 25.925781 85.695312 25.921875 Z M 26.851562 62.445312 C 21.601562 68.855469 19.285156 76.175781 19.46875 84.402344 C 20.164062 91.007812 22.558594 96.808594 26.71875 101.953125 C 27.054688 102.382812 27.390625 102.816406 27.738281 103.261719 C 31.722656 107.796875 38.378906 111.257812 44.296875 112.5 C 54.609375 113.128906 62.914062 112.273438 71.335938 105.695312 C 77.847656 99.746094 81.492188 92.511719 81.890625 83.683594 C 82.035156 74.257812 78.574219 66.921875 72.335938 59.984375 C 65.84375 53.785156 57.164062 51.667969 48.457031 51.8125 C 39.761719 52.5 32.785156 56.128906 26.851562 62.445312 Z M 104.75 62.980469 C 98.890625 70.179688 97.570312 78.863281 98.4375 87.890625 C 100.09375 96.507812 105.398438 103.265625 112.5 108.28125 C 121.011719 112.601562 130.195312 114.222656 139.484375 111.402344 C 148.042969 108.089844 154.351562 102.164062 158.203125 93.871094 C 161.300781 86.117188 161.042969 78.125 158.203125 70.3125 C 154.257812 62.304688 148.21875 56.710938 139.921875 53.4375 C 126.789062 49.027344 114.085938 53.183594 104.75 62.980469 Z M 104.75 62.980469 "/>
</g>
</svg>
